<?xml version="1.0" encoding="utf-8"?>
<!-- Generator: Adobe Illustrator 21.0.2, SVG Export Plug-In . SVG Version: 6.00 Build 0)  -->
<svg version="1.1" xmlns="http://www.w3.org/2000/svg" xmlns:xlink="http://www.w3.org/1999/xlink" x="0px" y="0px"
	 viewBox="0 0 234 130" style="enable-background:new 0 0 234 130;" xml:space="preserve">
<style type="text/css">
	.st0{fill:#E6E7E8;}
	.st1{fill:#FFFFFF;}
	.st2{opacity:0.41;clip-path:url(#SVGID_4_);fill:#231F20;}
	.st3{fill:none;stroke:#63B946;stroke-width:2.5649;stroke-miterlimit:10;}
	.st4{fill:#848383;}
	.st5{fill:#DDDDDB;}
	.st6{clip-path:url(#SVGID_6_);fill:#848383;}
	.st7{fill:#D3D3D1;}
	.st8{fill:#231F20;}
	.st9{fill:#FFFFFF;stroke:#FFFFFF;stroke-width:0.592;stroke-miterlimit:10;}
	.st10{fill:#00AEEF;}
	.st11{fill:none;stroke:#00AEEF;stroke-width:0.5681;stroke-miterlimit:10;}
	.st12{fill:#C1BFBF;}
	.st13{fill:none;stroke:#FFFFFF;stroke-width:1.6986;stroke-miterlimit:10;}
	.st14{fill:none;stroke:#00AEEF;stroke-width:1.2229;stroke-miterlimit:10;}
	.st15{fill:#63B946;}
	.st16{clip-path:url(#SVGID_12_);fill:#848383;}
	.st17{fill:#EFEFEF;}
	.st18{clip-path:url(#SVGID_14_);fill:#848383;}
	.st19{clip-path:url(#SVGID_16_);fill:#FFFFFF;}
	.st20{fill:none;stroke:#FFFFFF;stroke-width:0.958;stroke-miterlimit:10;}
	.st21{fill:#B74799;}
	.st22{fill:#9CCA3B;}
	.st23{fill:#00B3E5;}
	.st24{fill:#F69023;}
	.st25{fill:#FFC10D;}
	.st26{fill:#F05951;}
	.st27{fill:#EC2D82;}
	.st28{fill:none;stroke:#BCBCBC;stroke-width:2.2647;stroke-miterlimit:10;}
	.st29{clip-path:url(#SVGID_18_);fill:#848383;}
	.st30{fill:none;stroke:#00AEEF;stroke-miterlimit:10;}
	.st31{fill:none;stroke:#00AEEF;stroke-width:2.6568;stroke-miterlimit:10;}
	.st32{fill:#EC008C;}
	.st33{fill:none;stroke:#EC008C;stroke-width:2.1895;stroke-miterlimit:10;}
	.st34{fill:none;stroke:#00AEEF;stroke-width:3;stroke-miterlimit:10;}
	.st35{fill:none;stroke:#EC008C;stroke-width:2.4723;stroke-miterlimit:10;}
	.st36{fill:none;stroke:#63B946;stroke-width:4.8321;stroke-miterlimit:10;}
	.st37{fill:none;stroke:#63B946;stroke-width:5;stroke-miterlimit:10;}
	.st38{fill:none;stroke:#EC008C;stroke-width:3.1364;stroke-miterlimit:10;}
	.st39{fill:none;stroke:#00AEEF;stroke-width:0.7736;stroke-miterlimit:10;}
	.st40{fill:#F7F3BF;}
	.st41{fill:none;stroke:#D3D3D1;stroke-width:6;stroke-miterlimit:10;}
	.st42{fill:#BCBCBC;}
	.st43{fill:none;stroke:#D3D3D1;stroke-miterlimit:10;}
	.st44{fill:#777775;}
	.st45{fill:#FFFFFF;stroke:#777775;stroke-width:0.5;stroke-linecap:round;stroke-linejoin:round;stroke-miterlimit:10;}
	.st46{clip-path:url(#SVGID_20_);}
	.st47{fill:#DDDDDB;stroke:#D3D3D1;stroke-width:0.2613;stroke-miterlimit:10;}
	.st48{fill:none;stroke:#D3D3D1;stroke-width:6.9604;stroke-miterlimit:10;}
	.st49{fill:none;stroke:#D3D3D1;stroke-width:0.5755;stroke-miterlimit:10;}
	.st50{fill:none;stroke:#63B946;stroke-width:1.9209;stroke-miterlimit:10;}
	.st51{fill:#282827;}
	.st52{fill:none;stroke:#000000;stroke-width:0.5;stroke-miterlimit:10;}
	.st53{fill:#EAEAEA;stroke:#282827;stroke-width:0.75;stroke-miterlimit:10;}
	.st54{fill:none;stroke:#282827;stroke-miterlimit:10;}
	.st55{fill:#A5A49D;}
	.st56{fill-rule:evenodd;clip-rule:evenodd;fill:#848383;}
	.st57{fill:none;stroke:#EC008C;stroke-miterlimit:10;}
	.st58{fill:none;stroke:#D3D3D1;stroke-width:0.2938;stroke-miterlimit:10;}
	.st59{fill-rule:evenodd;clip-rule:evenodd;fill:#FFFFFF;}
	.st60{clip-path:url(#SVGID_30_);fill:#231F20;}
	.st61{fill:none;stroke:#FFFFFF;stroke-width:0.8471;stroke-miterlimit:10;}
	.st62{fill:#FFFFFD;}
	.st63{fill:none;stroke:#FFFFFF;stroke-width:1.003;stroke-linecap:round;stroke-linejoin:round;stroke-miterlimit:10;}
	.st64{fill:none;stroke:#FFFFFF;stroke-width:0.8363;stroke-miterlimit:10;}
	.st65{fill:none;stroke:#BCBCBC;stroke-width:0.8;stroke-miterlimit:10;}
	.st66{fill:none;stroke:#FFFFFF;stroke-width:0.8;stroke-miterlimit:10;}
	.st67{opacity:0.57;}
	.st68{clip-path:url(#SVGID_40_);fill:#231F20;}
	.st69{fill:none;stroke:#FFFFFF;stroke-width:0.8445;stroke-miterlimit:10;}
	.st70{fill:none;stroke:#FFFFFF;stroke-linecap:round;stroke-linejoin:round;stroke-miterlimit:10;}
	.st71{fill:none;stroke:#231F20;stroke-miterlimit:10;}
	.st72{clip-path:url(#SVGID_46_);}
	.st73{fill:#C9C9C7;}
	.st74{fill:none;stroke:#231F20;stroke-width:0.7722;stroke-miterlimit:10;}
	.st75{fill:#929497;}
	.st76{opacity:0.58;clip-path:url(#SVGID_64_);}
	.st77{fill:#9E9E9E;stroke:#FFFFFF;stroke-width:0.8538;stroke-miterlimit:10;}
</style>
<g id="base">
</g>
<g id="Capa_1">
	<g>
		<g>
			<g>
				<g>
					<polygon class="st1" points="74.7,8.4 67,8.4 25.2,48.4 15,48.4 15,8.4 9.6,8.4 9.6,93.8 15,93.8 15,53.8 25.2,53.8 66.2,93 
						67,93.8 74.7,93.8 72.1,91.2 30,51.1 69.9,13 					"/>
					<path class="st1" d="M225.8,90.3c-7.2-23-12.2-31.6-18.7-37.3c10.9-2.6,18.7-11.5,18.7-21.7c0-12.6-11.5-22.8-25.6-22.8
						l-35.1,0.1c-1.5,0-2.7,1.1-2.7,2.7L162.4,51l-0.1,1.2l0,1.4l0.1,0l-0.1,37.6v2.7h5.3v-40h31.8c7.5,5.1,12.7,10.6,21.1,38.1
						l0.8,1.9h5.5L225.8,90.3z M167.7,48.6V13.8h32.6c11.2,0,20.2,7.8,20.2,17.5c0,9.5-9,17.2-20.1,17.2"/>
					<rect x="87.8" y="8.5" class="st1" width="60.4" height="5.3"/>
					<polygon class="st1" points="93.3,54.7 126.4,54.7 126.4,49.4 88,49.4 88,93.4 148.4,93.4 148.4,88.1 93.3,88.1 					"/>
				</g>
			</g>
		</g>
		<g>
			<path class="st1" d="M20.1,125.5h-2v-7.9H9.2v7.9h-2v-16.8h2v7.2h8.9v-7.2h2V125.5z"/>
			<path class="st1" d="M42.1,125.5v-16.8h2v16.8H42.1z"/>
			<path class="st1" d="M75.5,121c0,1.5-0.5,2.6-1.6,3.5c-1.1,0.8-2.5,1.2-4.4,1.2c-2,0-3.5-0.3-4.6-0.8V123
				c0.7,0.3,1.4,0.5,2.3,0.7c0.8,0.2,1.6,0.3,2.4,0.3c1.3,0,2.3-0.2,2.9-0.7c0.7-0.5,1-1.2,1-2.1c0-0.6-0.1-1.1-0.4-1.4
				c-0.2-0.4-0.6-0.7-1.2-1c-0.5-0.3-1.4-0.7-2.5-1.1c-1.6-0.6-2.7-1.2-3.4-2c-0.7-0.8-1-1.8-1-3c0-1.3,0.5-2.3,1.5-3.1
				c1-0.8,2.3-1.2,3.9-1.2c1.7,0,3.2,0.3,4.6,0.9l-0.6,1.7c-1.4-0.6-2.7-0.9-4.1-0.9c-1,0-1.8,0.2-2.4,0.7c-0.6,0.4-0.9,1.1-0.9,1.9
				c0,0.6,0.1,1.1,0.3,1.4c0.2,0.4,0.6,0.7,1.1,1c0.5,0.3,1.3,0.7,2.3,1c1.8,0.6,3,1.3,3.6,2C75.2,118.9,75.5,119.8,75.5,121z"/>
			<path class="st1" d="M101.5,125.5h-2v-15.1h-5.3v-1.7h12.6v1.7h-5.3V125.5z"/>
			<path class="st1" d="M141.4,117c0,2.7-0.7,4.8-2,6.4c-1.4,1.5-3.3,2.3-5.7,2.3c-2.5,0-4.4-0.8-5.7-2.3c-1.3-1.5-2-3.7-2-6.4
				c0-2.7,0.7-4.9,2-6.4c1.4-1.5,3.3-2.3,5.8-2.3c2.4,0,4.3,0.8,5.7,2.3C140.7,112.2,141.4,114.3,141.4,117z M127.9,117
				c0,2.3,0.5,4,1.5,5.2c1,1.2,2.4,1.8,4.2,1.8c1.9,0,3.3-0.6,4.2-1.8c1-1.2,1.4-2.9,1.4-5.2c0-2.3-0.5-4-1.4-5.2s-2.4-1.8-4.2-1.8
				c-1.9,0-3.3,0.6-4.3,1.8C128.4,113.1,127.9,114.8,127.9,117z"/>
			<path class="st1" d="M164.4,118.5v7h-2v-16.8h4.6c2.1,0,3.6,0.4,4.6,1.2c1,0.8,1.5,2,1.5,3.6c0,2.2-1.1,3.7-3.4,4.5l4.6,7.6H172
				l-4.1-7H164.4z M164.4,116.8h2.7c1.4,0,2.4-0.3,3-0.8c0.6-0.5,1-1.4,1-2.5c0-1.1-0.3-1.9-1-2.4c-0.7-0.5-1.7-0.7-3.2-0.7h-2.5
				V116.8z"/>
			<path class="st1" d="M194.4,125.5v-16.8h2v16.8H194.4z"/>
			<path class="st1" d="M225.6,110.1c-1.9,0-3.3,0.6-4.4,1.8c-1.1,1.2-1.6,2.9-1.6,5.1c0,2.2,0.5,3.9,1.5,5.1c1,1.2,2.5,1.8,4.4,1.8
				c1.2,0,2.5-0.2,4-0.6v1.7c-1.2,0.4-2.6,0.7-4.3,0.7c-2.5,0-4.4-0.8-5.7-2.3c-1.3-1.5-2-3.6-2-6.4c0-1.7,0.3-3.3,1-4.6
				c0.6-1.3,1.6-2.3,2.8-3c1.2-0.7,2.7-1.1,4.3-1.1c1.8,0,3.3,0.3,4.6,1l-0.8,1.7C228.1,110.4,226.9,110.1,225.6,110.1z"/>
		</g>
	</g>
</g>
</svg>
