<?xml version="1.0" encoding="utf-8"?>
<!-- Generator: Adobe Illustrator 21.0.2, SVG Export Plug-In . SVG Version: 6.00 Build 0)  -->
<svg version="1.1" xmlns="http://www.w3.org/2000/svg" xmlns:xlink="http://www.w3.org/1999/xlink" x="0px" y="0px"
	 viewBox="0 0 374 216" style="enable-background:new 0 0 374 216;" xml:space="preserve">
<style type="text/css">
	.st0{fill:#E6E7E8;}
	.st1{fill:#FFFFFF;}
	.st2{opacity:0.41;clip-path:url(#SVGID_4_);fill:#231F20;}
	.st3{fill:none;stroke:#63B946;stroke-width:2.5649;stroke-miterlimit:10;}
	.st4{fill:#848383;}
	.st5{fill:#DDDDDB;}
	.st6{clip-path:url(#SVGID_6_);fill:#848383;}
	.st7{fill:#D3D3D1;}
	.st8{fill:#231F20;}
	.st9{fill:#FFFFFF;stroke:#FFFFFF;stroke-width:0.592;stroke-miterlimit:10;}
	.st10{fill:#00AEEF;}
	.st11{fill:none;stroke:#00AEEF;stroke-width:0.5681;stroke-miterlimit:10;}
	.st12{fill:#C1BFBF;}
	.st13{fill:none;stroke:#FFFFFF;stroke-width:1.6986;stroke-miterlimit:10;}
	.st14{fill:none;stroke:#00AEEF;stroke-width:1.2229;stroke-miterlimit:10;}
	.st15{fill:#63B946;}
	.st16{clip-path:url(#SVGID_12_);fill:#848383;}
	.st17{fill:#EFEFEF;}
	.st18{clip-path:url(#SVGID_14_);fill:#848383;}
	.st19{clip-path:url(#SVGID_16_);fill:#FFFFFF;}
	.st20{fill:none;stroke:#FFFFFF;stroke-width:0.958;stroke-miterlimit:10;}
	.st21{fill:#B74799;}
	.st22{fill:#9CCA3B;}
	.st23{fill:#00B3E5;}
	.st24{fill:#F69023;}
	.st25{fill:#FFC10D;}
	.st26{fill:#F05951;}
	.st27{fill:#EC2D82;}
	.st28{fill:none;stroke:#BCBCBC;stroke-width:2.2647;stroke-miterlimit:10;}
	.st29{clip-path:url(#SVGID_18_);fill:#848383;}
	.st30{fill:none;stroke:#00AEEF;stroke-miterlimit:10;}
	.st31{fill:none;stroke:#00AEEF;stroke-width:2.6568;stroke-miterlimit:10;}
	.st32{fill:#EC008C;}
	.st33{fill:none;stroke:#EC008C;stroke-width:2.1895;stroke-miterlimit:10;}
	.st34{fill:none;stroke:#00AEEF;stroke-width:3;stroke-miterlimit:10;}
	.st35{fill:none;stroke:#EC008C;stroke-width:2.4723;stroke-miterlimit:10;}
	.st36{fill:none;stroke:#63B946;stroke-width:4.8321;stroke-miterlimit:10;}
	.st37{fill:none;stroke:#63B946;stroke-width:5;stroke-miterlimit:10;}
	.st38{fill:none;stroke:#EC008C;stroke-width:3.1364;stroke-miterlimit:10;}
	.st39{fill:none;stroke:#00AEEF;stroke-width:0.7736;stroke-miterlimit:10;}
	.st40{fill:#F7F3BF;}
	.st41{fill:none;stroke:#D3D3D1;stroke-width:6;stroke-miterlimit:10;}
	.st42{fill:#BCBCBC;}
	.st43{fill:none;stroke:#D3D3D1;stroke-miterlimit:10;}
	.st44{fill:#777775;}
	.st45{fill:#FFFFFF;stroke:#777775;stroke-width:0.5;stroke-linecap:round;stroke-linejoin:round;stroke-miterlimit:10;}
	.st46{clip-path:url(#SVGID_20_);}
	.st47{fill:#DDDDDB;stroke:#D3D3D1;stroke-width:0.2613;stroke-miterlimit:10;}
	.st48{fill:none;stroke:#D3D3D1;stroke-width:6.9604;stroke-miterlimit:10;}
	.st49{fill:none;stroke:#D3D3D1;stroke-width:0.5755;stroke-miterlimit:10;}
	.st50{fill:none;stroke:#63B946;stroke-width:1.9209;stroke-miterlimit:10;}
	.st51{fill:#282827;}
	.st52{fill:none;stroke:#000000;stroke-width:0.5;stroke-miterlimit:10;}
	.st53{fill:#EAEAEA;stroke:#282827;stroke-width:0.75;stroke-miterlimit:10;}
	.st54{fill:none;stroke:#282827;stroke-miterlimit:10;}
	.st55{fill:#A5A49D;}
	.st56{fill-rule:evenodd;clip-rule:evenodd;fill:#848383;}
	.st57{fill:none;stroke:#EC008C;stroke-miterlimit:10;}
	.st58{fill:none;stroke:#D3D3D1;stroke-width:0.2938;stroke-miterlimit:10;}
	.st59{fill-rule:evenodd;clip-rule:evenodd;fill:#FFFFFF;}
	.st60{clip-path:url(#SVGID_30_);fill:#231F20;}
	.st61{fill:none;stroke:#FFFFFF;stroke-width:0.8471;stroke-miterlimit:10;}
	.st62{fill:#FFFFFD;}
	.st63{fill:none;stroke:#FFFFFF;stroke-width:1.003;stroke-linecap:round;stroke-linejoin:round;stroke-miterlimit:10;}
	.st64{fill:none;stroke:#FFFFFF;stroke-width:0.8363;stroke-miterlimit:10;}
	.st65{fill:none;stroke:#BCBCBC;stroke-width:0.8;stroke-miterlimit:10;}
	.st66{fill:none;stroke:#FFFFFF;stroke-width:0.8;stroke-miterlimit:10;}
	.st67{opacity:0.57;}
	.st68{clip-path:url(#SVGID_40_);fill:#231F20;}
	.st69{fill:none;stroke:#FFFFFF;stroke-width:0.8445;stroke-miterlimit:10;}
	.st70{fill:none;stroke:#FFFFFF;stroke-linecap:round;stroke-linejoin:round;stroke-miterlimit:10;}
	.st71{fill:none;stroke:#231F20;stroke-miterlimit:10;}
	.st72{clip-path:url(#SVGID_46_);}
	.st73{fill:none;stroke:#FFFFFF;stroke-width:0.7551;stroke-miterlimit:10;}
	.st74{fill:#C9C9C7;}
	.st75{fill:none;stroke:#231F20;stroke-width:0.7722;stroke-miterlimit:10;}
	.st76{fill:#929497;}
	.st77{opacity:0.58;clip-path:url(#SVGID_70_);}
	.st78{fill:#9E9E9E;stroke:#FFFFFF;stroke-width:0.8538;stroke-miterlimit:10;}
</style>
<g id="base">
</g>
<g id="Capa_1">
	<g>
		<g>
			<g>
				<g>
					<polygon class="st1" points="119.5,13 106.8,13 38.7,78.2 22,78.2 22,13 13.4,13 13.4,152.2 22,152.2 22,86.9 38.7,86.9 
						105.6,150.9 106.8,152.2 119.5,152.2 115.2,148.1 46.6,82.6 111.6,20.5 					"/>
					<path class="st1" d="M365.8,146.5c-11.7-37.5-19.9-51.6-30.4-60.9c17.7-4.3,30.5-18.8,30.5-35.5c0-20.5-18.7-37.2-41.7-37.2
						l-57.3,0.2c-2.5,0-4.3,1.9-4.3,4.3l-0.1,64.8l-0.1,1.9l0,2.3l0.1,0l-0.1,61.3v4.3h8.7V86.9h51.8c12.2,8.4,20.8,17.3,34.4,62.2
						l1.3,3.1h8.9L365.8,146.5z M271.1,78.4V21.7h53.2c18.2,0,33,12.8,33,28.5c0,15.5-14.7,28.1-32.8,28.1"/>
					<rect x="140.8" y="13.1" class="st1" width="98.5" height="8.7"/>
					<polygon class="st1" points="149.8,88.5 203.8,88.5 203.8,79.8 141.2,79.8 141.2,151.6 239.6,151.6 239.6,143 149.8,143 					
						"/>
				</g>
			</g>
		</g>
		<g>
			<path class="st1" d="M86.6,203.9h-3.2v-12.9H68.9v12.9h-3.2v-27.5h3.2v11.7h14.5v-11.7h3.2V203.9z"/>
			<path class="st1" d="M148.7,190.1c0,4.4-1.1,7.9-3.3,10.4c-2.2,2.5-5.3,3.8-9.3,3.8c-4,0-7.2-1.2-9.4-3.7
				c-2.2-2.5-3.3-6-3.3-10.5c0-4.5,1.1-7.9,3.3-10.4c2.2-2.5,5.3-3.7,9.4-3.7c3.9,0,7,1.3,9.2,3.8
				C147.6,182.2,148.7,185.7,148.7,190.1z M126.9,190.1c0,3.7,0.8,6.5,2.4,8.5c1.6,1.9,3.9,2.9,6.9,2.9c3,0,5.3-1,6.9-2.9
				c1.6-1.9,2.3-4.7,2.3-8.5c0-3.7-0.8-6.5-2.3-8.4c-1.5-1.9-3.8-2.9-6.9-2.9c-3,0-5.4,1-6.9,2.9
				C127.6,183.6,126.9,186.4,126.9,190.1z"/>
			<path class="st1" d="M206.4,176.4v17.8c0,3.1-0.9,5.6-2.8,7.4c-1.9,1.8-4.5,2.7-7.8,2.7c-3.3,0-5.9-0.9-7.7-2.7
				c-1.8-1.8-2.7-4.3-2.7-7.4v-17.7h3.2v17.9c0,2.3,0.6,4.1,1.9,5.3c1.3,1.2,3.1,1.8,5.5,1.8c2.3,0,4.1-0.6,5.4-1.9
				c1.3-1.2,1.9-3,1.9-5.3v-17.9H206.4z"/>
			<path class="st1" d="M260,196.6c0,2.4-0.9,4.3-2.6,5.7c-1.8,1.4-4.1,2-7.1,2c-3.3,0-5.8-0.4-7.5-1.3v-3.1
				c1.1,0.5,2.4,0.9,3.7,1.1c1.3,0.3,2.6,0.4,3.9,0.4c2.1,0,3.7-0.4,4.8-1.2c1.1-0.8,1.6-1.9,1.6-3.4c0-1-0.2-1.7-0.6-2.3
				c-0.4-0.6-1-1.2-1.9-1.7c-0.9-0.5-2.3-1.1-4.1-1.7c-2.6-0.9-4.4-2-5.5-3.3c-1.1-1.3-1.6-2.9-1.6-4.9c0-2.1,0.8-3.8,2.4-5.1
				c1.6-1.3,3.7-1.9,6.3-1.9c2.7,0,5.2,0.5,7.5,1.5l-1,2.8c-2.3-1-4.5-1.4-6.6-1.4c-1.7,0-3,0.4-4,1.1c-1,0.7-1.4,1.7-1.4,3
				c0,1,0.2,1.7,0.5,2.3c0.4,0.6,0.9,1.2,1.8,1.7c0.8,0.5,2.1,1.1,3.8,1.7c2.9,1,4.9,2.1,5.9,3.3C259.4,193.2,260,194.7,260,196.6z"
				/>
			<path class="st1" d="M311.7,203.9h-15.3v-27.5h15.3v2.8h-12.1v8.9H311v2.8h-11.4V201h12.1V203.9z"/>
		</g>
	</g>
</g>
</svg>
