<?xml version="1.0" encoding="utf-8"?>
<!-- Generator: Adobe Illustrator 21.0.2, SVG Export Plug-In . SVG Version: 6.00 Build 0)  -->
<svg version="1.1" xmlns="http://www.w3.org/2000/svg" xmlns:xlink="http://www.w3.org/1999/xlink" x="0px" y="0px"
	 viewBox="0 0 50 50" style="enable-background:new 0 0 50 50;" xml:space="preserve">
<style type="text/css">
	.st0{fill:#E6E7E8;}
	.st1{fill:#FFFFFF;}
	.st2{opacity:0.41;clip-path:url(#SVGID_4_);fill:#231F20;}
	.st3{fill:none;stroke:#63B946;stroke-width:2.5649;stroke-miterlimit:10;}
	.st4{fill:#848383;}
	.st5{fill:#DDDDDB;}
	.st6{clip-path:url(#SVGID_6_);fill:#848383;}
	.st7{fill:#D3D3D1;}
	.st8{fill:#231F20;}
	.st9{fill:#FFFFFF;stroke:#FFFFFF;stroke-width:0.592;stroke-miterlimit:10;}
	.st10{fill:#00AEEF;}
	.st11{fill:none;stroke:#00AEEF;stroke-width:0.5681;stroke-miterlimit:10;}
	.st12{fill:#C1BFBF;}
	.st13{fill:none;stroke:#FFFFFF;stroke-width:1.6986;stroke-miterlimit:10;}
	.st14{fill:none;stroke:#00AEEF;stroke-width:1.2229;stroke-miterlimit:10;}
	.st15{fill:#63B946;}
	.st16{clip-path:url(#SVGID_12_);fill:#848383;}
	.st17{fill:#EFEFEF;}
	.st18{clip-path:url(#SVGID_14_);fill:#848383;}
	.st19{clip-path:url(#SVGID_16_);fill:#FFFFFF;}
	.st20{fill:none;stroke:#FFFFFF;stroke-width:0.958;stroke-miterlimit:10;}
	.st21{fill:#B74799;}
	.st22{fill:#9CCA3B;}
	.st23{fill:#00B3E5;}
	.st24{fill:#F69023;}
	.st25{fill:#FFC10D;}
	.st26{fill:#F05951;}
	.st27{fill:#EC2D82;}
	.st28{fill:none;stroke:#BCBCBC;stroke-width:2.2647;stroke-miterlimit:10;}
	.st29{clip-path:url(#SVGID_18_);fill:#848383;}
	.st30{fill:none;stroke:#00AEEF;stroke-miterlimit:10;}
	.st31{fill:none;stroke:#00AEEF;stroke-width:2.6568;stroke-miterlimit:10;}
	.st32{fill:#EC008C;}
	.st33{fill:none;stroke:#EC008C;stroke-width:2.1895;stroke-miterlimit:10;}
	.st34{fill:none;stroke:#00AEEF;stroke-width:3;stroke-miterlimit:10;}
	.st35{fill:none;stroke:#EC008C;stroke-width:2.4723;stroke-miterlimit:10;}
	.st36{fill:none;stroke:#63B946;stroke-width:4.8321;stroke-miterlimit:10;}
	.st37{fill:none;stroke:#63B946;stroke-width:5;stroke-miterlimit:10;}
	.st38{fill:none;stroke:#EC008C;stroke-width:3.1364;stroke-miterlimit:10;}
	.st39{fill:none;stroke:#00AEEF;stroke-width:0.7736;stroke-miterlimit:10;}
	.st40{fill:#F7F3BF;}
	.st41{fill:none;stroke:#D3D3D1;stroke-width:6;stroke-miterlimit:10;}
	.st42{fill:#BCBCBC;}
	.st43{fill:none;stroke:#D3D3D1;stroke-miterlimit:10;}
	.st44{fill:#777775;}
	.st45{fill:#FFFFFF;stroke:#777775;stroke-width:0.5;stroke-linecap:round;stroke-linejoin:round;stroke-miterlimit:10;}
	.st46{clip-path:url(#SVGID_20_);}
	.st47{fill:#DDDDDB;stroke:#D3D3D1;stroke-width:0.2613;stroke-miterlimit:10;}
	.st48{fill:none;stroke:#D3D3D1;stroke-width:6.9604;stroke-miterlimit:10;}
	.st49{fill:none;stroke:#D3D3D1;stroke-width:0.5755;stroke-miterlimit:10;}
	.st50{fill:none;stroke:#63B946;stroke-width:1.9209;stroke-miterlimit:10;}
	.st51{fill:#282827;}
	.st52{fill:none;stroke:#000000;stroke-width:0.5;stroke-miterlimit:10;}
	.st53{fill:#EAEAEA;stroke:#282827;stroke-width:0.75;stroke-miterlimit:10;}
	.st54{fill:none;stroke:#282827;stroke-miterlimit:10;}
	.st55{fill:#A5A49D;}
	.st56{fill-rule:evenodd;clip-rule:evenodd;fill:#848383;}
	.st57{fill:none;stroke:#EC008C;stroke-miterlimit:10;}
	.st58{fill:none;stroke:#D3D3D1;stroke-width:0.2938;stroke-miterlimit:10;}
	.st59{fill-rule:evenodd;clip-rule:evenodd;fill:#FFFFFF;}
	.st60{clip-path:url(#SVGID_30_);fill:#231F20;}
	.st61{fill:none;stroke:#FFFFFF;stroke-width:0.8471;stroke-miterlimit:10;}
	.st62{fill:#FFFFFD;}
	.st63{fill:none;stroke:#FFFFFF;stroke-width:1.003;stroke-linecap:round;stroke-linejoin:round;stroke-miterlimit:10;}
	.st64{fill:none;stroke:#FFFFFF;stroke-width:0.8363;stroke-miterlimit:10;}
	.st65{fill:none;stroke:#BCBCBC;stroke-width:0.8;stroke-miterlimit:10;}
	.st66{fill:none;stroke:#FFFFFF;stroke-width:0.8;stroke-miterlimit:10;}
	.st67{opacity:0.57;}
	.st68{clip-path:url(#SVGID_40_);fill:#231F20;}
	.st69{fill:none;stroke:#FFFFFF;stroke-width:0.8445;stroke-miterlimit:10;}
	.st70{fill:none;stroke:#FFFFFF;stroke-linecap:round;stroke-linejoin:round;stroke-miterlimit:10;}
	.st71{fill:none;stroke:#231F20;stroke-miterlimit:10;}
	.st72{clip-path:url(#SVGID_46_);}
	.st73{fill:#C9C9C7;}
	.st74{fill:none;stroke:#231F20;stroke-width:0.7722;stroke-miterlimit:10;}
	.st75{fill:#929497;}
	.st76{opacity:0.58;clip-path:url(#SVGID_64_);}
	.st77{fill:#9E9E9E;stroke:#FFFFFF;stroke-width:0.8538;stroke-miterlimit:10;}
</style>
<g id="base">
</g>
<g id="Capa_1">
	<g>
		<path class="st1" d="M25,3.5c5.9,0,11.3,2.4,15.2,6.3c3.9,3.9,6.3,9.3,6.3,15.2c0,5.9-2.4,11.3-6.3,15.2
			c-3.9,3.9-9.3,6.3-15.2,6.3s-11.3-2.4-15.2-6.3C5.9,36.3,3.5,30.9,3.5,25c0-5.9,2.4-11.3,6.3-15.2C13.7,5.9,19.1,3.5,25,3.5
			L25,3.5z M39,11c-3.6-3.6-8.5-5.8-14-5.8S14.6,7.4,11,11c-3.6,3.6-5.8,8.5-5.8,14c0,5.5,2.2,10.4,5.8,14c3.6,3.6,8.5,5.8,14,5.8
			s10.4-2.2,14-5.8c3.6-3.6,5.8-8.5,5.8-14C44.8,19.5,42.6,14.6,39,11L39,11z"/>
	</g>
	<g>
		<g>
			<g>
				<g>
					<path class="st1" d="M25,21.3c-2.1,0-3.7,1.7-3.7,3.7c0,2.1,1.6,3.7,3.7,3.7c2.1,0,3.7-1.7,3.7-3.7C28.7,23,27.1,21.3,25,21.3z
						"/>
				</g>
			</g>
			<g>
				<path class="st1" d="M36.1,20.8c0-1.1-0.1-2.2-0.6-3.3c-0.8-1.8-2.2-2.9-4.1-3.4c-0.9-0.2-1.7-0.3-2.6-0.3c-2.5,0-4.9,0-7.4,0
					c-1.1,0-2.2,0-3.2,0.4c-2.3,0.7-3.7,2.3-4.2,4.7c-0.2,1.2-0.2,2.4-0.2,3.7c0,2,0,3.9,0,5.9c0,1.1,0,2.2,0.4,3.2
					c0.7,2.4,2.3,3.8,4.7,4.2c0.7,0.1,1.5,0.1,2.2,0.2c0.1,0,0.1,0,0.2,0c2.5,0,4.9,0,7.4,0c0.2,0,0.3,0,0.5,0
					c1.1,0,2.2-0.1,3.3-0.6c1.8-0.8,2.9-2.2,3.4-4.1c0.2-0.9,0.3-1.7,0.3-2.6c0-0.1,0-0.1,0-0.2c0-2.4,0-4.9,0-7.4
					C36.2,21.2,36.1,21,36.1,20.8z M25,30.7c-3.2,0-5.7-2.6-5.7-5.7c0-3.2,2.6-5.8,5.8-5.8c3.2,0,5.7,2.6,5.7,5.8
					C30.7,28.2,28.2,30.7,25,30.7z M31,20.4c-0.7,0-1.3-0.6-1.3-1.4c0-0.7,0.6-1.3,1.4-1.3c0.7,0,1.3,0.6,1.3,1.4
					C32.3,19.8,31.7,20.4,31,20.4z"/>
			</g>
			<g>
				<g>
					<path class="st59" d="M28.7,25c0,2-1.7,3.7-3.7,3.7c-2,0-3.7-1.7-3.7-3.7c0-2,1.7-3.7,3.7-3.7C27.1,21.3,28.7,23,28.7,25z"/>
				</g>
			</g>
		</g>
	</g>
</g>
</svg>
