<?xml version="1.0" encoding="utf-8"?>
<!-- Generator: Adobe Illustrator 21.0.2, SVG Export Plug-In . SVG Version: 6.00 Build 0)  -->
<svg version="1.1" xmlns="http://www.w3.org/2000/svg" xmlns:xlink="http://www.w3.org/1999/xlink" x="0px" y="0px"
	 viewBox="0 0 243 136" style="enable-background:new 0 0 243 136;" xml:space="preserve">
<style type="text/css">
	.st0{fill:#E6E7E8;}
	.st1{fill:#FFFFFF;}
	.st2{opacity:0.41;clip-path:url(#SVGID_4_);fill:#231F20;}
	.st3{fill:none;stroke:#63B946;stroke-width:2.5649;stroke-miterlimit:10;}
	.st4{fill:#848383;}
	.st5{fill:#DDDDDB;}
	.st6{clip-path:url(#SVGID_6_);fill:#848383;}
	.st7{fill:#D3D3D1;}
	.st8{fill:#231F20;}
	.st9{fill:#FFFFFF;stroke:#FFFFFF;stroke-width:0.592;stroke-miterlimit:10;}
	.st10{fill:#00AEEF;}
	.st11{fill:none;stroke:#00AEEF;stroke-width:0.5681;stroke-miterlimit:10;}
	.st12{fill:#C1BFBF;}
	.st13{fill:none;stroke:#FFFFFF;stroke-width:1.6986;stroke-miterlimit:10;}
	.st14{fill:none;stroke:#00AEEF;stroke-width:1.2229;stroke-miterlimit:10;}
	.st15{fill:#63B946;}
	.st16{clip-path:url(#SVGID_12_);fill:#848383;}
	.st17{fill:#EFEFEF;}
	.st18{clip-path:url(#SVGID_14_);fill:#848383;}
	.st19{clip-path:url(#SVGID_16_);fill:#FFFFFF;}
	.st20{fill:none;stroke:#FFFFFF;stroke-width:0.958;stroke-miterlimit:10;}
	.st21{fill:#B74799;}
	.st22{fill:#9CCA3B;}
	.st23{fill:#00B3E5;}
	.st24{fill:#F69023;}
	.st25{fill:#FFC10D;}
	.st26{fill:#F05951;}
	.st27{fill:#EC2D82;}
	.st28{fill:none;stroke:#BCBCBC;stroke-width:2.2647;stroke-miterlimit:10;}
	.st29{clip-path:url(#SVGID_18_);fill:#848383;}
	.st30{fill:none;stroke:#00AEEF;stroke-miterlimit:10;}
	.st31{fill:none;stroke:#00AEEF;stroke-width:2.6568;stroke-miterlimit:10;}
	.st32{fill:#EC008C;}
	.st33{fill:none;stroke:#EC008C;stroke-width:2.1895;stroke-miterlimit:10;}
	.st34{fill:none;stroke:#00AEEF;stroke-width:3;stroke-miterlimit:10;}
	.st35{fill:none;stroke:#EC008C;stroke-width:2.4723;stroke-miterlimit:10;}
	.st36{fill:none;stroke:#63B946;stroke-width:4.8321;stroke-miterlimit:10;}
	.st37{fill:none;stroke:#63B946;stroke-width:5;stroke-miterlimit:10;}
	.st38{fill:none;stroke:#EC008C;stroke-width:3.1364;stroke-miterlimit:10;}
	.st39{fill:none;stroke:#00AEEF;stroke-width:0.7736;stroke-miterlimit:10;}
	.st40{fill:#F7F3BF;}
	.st41{fill:none;stroke:#D3D3D1;stroke-width:6;stroke-miterlimit:10;}
	.st42{fill:#BCBCBC;}
	.st43{fill:none;stroke:#D3D3D1;stroke-miterlimit:10;}
	.st44{fill:#777775;}
	.st45{fill:#FFFFFF;stroke:#777775;stroke-width:0.5;stroke-linecap:round;stroke-linejoin:round;stroke-miterlimit:10;}
	.st46{clip-path:url(#SVGID_20_);}
	.st47{fill:#DDDDDB;stroke:#D3D3D1;stroke-width:0.2613;stroke-miterlimit:10;}
	.st48{fill:none;stroke:#D3D3D1;stroke-width:6.9604;stroke-miterlimit:10;}
	.st49{fill:none;stroke:#D3D3D1;stroke-width:0.5755;stroke-miterlimit:10;}
	.st50{fill:none;stroke:#63B946;stroke-width:1.9209;stroke-miterlimit:10;}
	.st51{fill:#282827;}
	.st52{fill:none;stroke:#000000;stroke-width:0.5;stroke-miterlimit:10;}
	.st53{fill:#EAEAEA;stroke:#282827;stroke-width:0.75;stroke-miterlimit:10;}
	.st54{fill:none;stroke:#282827;stroke-miterlimit:10;}
	.st55{fill:#A5A49D;}
	.st56{fill-rule:evenodd;clip-rule:evenodd;fill:#848383;}
	.st57{fill:none;stroke:#EC008C;stroke-miterlimit:10;}
	.st58{fill:none;stroke:#D3D3D1;stroke-width:0.2938;stroke-miterlimit:10;}
	.st59{fill-rule:evenodd;clip-rule:evenodd;fill:#FFFFFF;}
	.st60{clip-path:url(#SVGID_30_);fill:#231F20;}
	.st61{fill:none;stroke:#FFFFFF;stroke-width:0.8471;stroke-miterlimit:10;}
	.st62{fill:#FFFFFD;}
	.st63{fill:none;stroke:#FFFFFF;stroke-width:1.003;stroke-linecap:round;stroke-linejoin:round;stroke-miterlimit:10;}
	.st64{fill:none;stroke:#FFFFFF;stroke-width:0.8363;stroke-miterlimit:10;}
	.st65{fill:none;stroke:#BCBCBC;stroke-width:0.8;stroke-miterlimit:10;}
	.st66{fill:none;stroke:#FFFFFF;stroke-width:0.8;stroke-miterlimit:10;}
	.st67{opacity:0.57;}
	.st68{clip-path:url(#SVGID_40_);fill:#231F20;}
	.st69{fill:none;stroke:#FFFFFF;stroke-width:0.8445;stroke-miterlimit:10;}
	.st70{fill:none;stroke:#FFFFFF;stroke-linecap:round;stroke-linejoin:round;stroke-miterlimit:10;}
	.st71{fill:none;stroke:#231F20;stroke-miterlimit:10;}
	.st72{clip-path:url(#SVGID_46_);}
	.st73{fill:#C9C9C7;}
	.st74{fill:none;stroke:#231F20;stroke-width:0.7722;stroke-miterlimit:10;}
	.st75{fill:#929497;}
	.st76{opacity:0.58;clip-path:url(#SVGID_64_);}
	.st77{fill:#9E9E9E;stroke:#FFFFFF;stroke-width:0.8538;stroke-miterlimit:10;}
</style>
<g id="base">
</g>
<g id="Capa_1">
	<g>
		<g>
			<g>
				<g>
					<polygon class="st1" points="74.1,6 65.8,6 21.2,48.6 10.3,48.6 10.3,6 4.7,6 4.7,96.9 10.3,96.9 10.3,54.3 21.2,54.3 
						64.9,96.1 65.8,96.9 74.1,96.9 71.2,94.3 26.4,51.5 68.9,10.8 					"/>
					<path class="st1" d="M235.1,93.2c-7.6-24.5-13-33.7-19.9-39.8c11.6-2.8,20-12.3,20-23.2c0-13.4-12.2-24.3-27.3-24.3l-37.5,0.1
						c-1.6,0-2.8,1.2-2.8,2.8l-0.1,42.4l-0.1,1.2l0,1.5l0.1,0l-0.1,40v2.8h5.7V54.3H207c8,5.5,13.6,11.3,22.5,40.6l0.8,2h5.8
						L235.1,93.2z M173.1,48.7V11.7h34.8c11.9,0,21.6,8.3,21.6,18.6c0,10.1-9.6,18.3-21.4,18.3"/>
					<rect x="88" y="6.1" class="st1" width="64.4" height="5.7"/>
					<polygon class="st1" points="93.9,55.3 129.2,55.3 129.2,49.7 88.2,49.7 88.2,96.6 152.6,96.6 152.6,90.9 93.9,90.9 					"/>
				</g>
			</g>
		</g>
		<g>
			<path class="st1" d="M15.8,130.7h-2.1v-8.5H4.2v8.5H2.1v-18h2.1v7.6h9.5v-7.6h2.1V130.7z"/>
			<path class="st1" d="M39.2,130.7v-18h2.1v18H39.2z"/>
			<path class="st1" d="M74.9,126c0,1.6-0.6,2.8-1.7,3.7s-2.7,1.3-4.7,1.3c-2.1,0-3.8-0.3-4.9-0.8v-2c0.7,0.3,1.5,0.6,2.4,0.7
				c0.9,0.2,1.7,0.3,2.6,0.3c1.4,0,2.4-0.3,3.1-0.8c0.7-0.5,1.1-1.3,1.1-2.2c0-0.6-0.1-1.1-0.4-1.5c-0.2-0.4-0.7-0.8-1.3-1.1
				c-0.6-0.3-1.5-0.7-2.7-1.1c-1.7-0.6-2.9-1.3-3.6-2.1c-0.7-0.8-1.1-1.9-1.1-3.2c0-1.4,0.5-2.5,1.6-3.3c1-0.8,2.4-1.2,4.1-1.2
				c1.8,0,3.4,0.3,4.9,1l-0.7,1.8c-1.5-0.6-2.9-0.9-4.3-0.9c-1.1,0-2,0.2-2.6,0.7c-0.6,0.5-0.9,1.1-0.9,2c0,0.6,0.1,1.1,0.3,1.5
				c0.2,0.4,0.6,0.8,1.2,1.1c0.5,0.3,1.4,0.7,2.5,1.1c1.9,0.7,3.2,1.4,3.9,2.2C74.5,123.7,74.9,124.7,74.9,126z"/>
			<path class="st1" d="M102.6,130.7h-2.1v-16.1h-5.7v-1.9h13.5v1.9h-5.7V130.7z"/>
			<path class="st1" d="M145.1,121.7c0,2.9-0.7,5.1-2.2,6.8c-1.5,1.6-3.5,2.5-6.1,2.5c-2.6,0-4.7-0.8-6.1-2.4
				c-1.4-1.6-2.2-3.9-2.2-6.8c0-2.9,0.7-5.2,2.2-6.8c1.4-1.6,3.5-2.4,6.1-2.4c2.6,0,4.6,0.8,6,2.5
				C144.4,116.6,145.1,118.9,145.1,121.7z M130.8,121.7c0,2.4,0.5,4.3,1.6,5.5c1,1.3,2.5,1.9,4.5,1.9c2,0,3.5-0.6,4.5-1.9
				c1-1.3,1.5-3.1,1.5-5.5c0-2.4-0.5-4.2-1.5-5.5s-2.5-1.9-4.5-1.9c-2,0-3.5,0.6-4.5,1.9C131.3,117.5,130.8,119.3,130.8,121.7z"/>
			<path class="st1" d="M169.7,123.3v7.5h-2.1v-18h4.9c2.2,0,3.8,0.4,4.9,1.3c1.1,0.8,1.6,2.1,1.6,3.8c0,2.4-1.2,4-3.6,4.8l4.9,8.1
				h-2.5l-4.3-7.5H169.7z M169.7,121.5h2.9c1.5,0,2.6-0.3,3.2-0.9c0.7-0.6,1-1.5,1-2.6c0-1.2-0.3-2-1.1-2.6
				c-0.7-0.5-1.8-0.8-3.4-0.8h-2.7V121.5z"/>
			<path class="st1" d="M201.7,130.7v-18h2.1v18H201.7z"/>
			<path class="st1" d="M234.9,114.4c-2,0-3.5,0.7-4.7,2s-1.7,3.1-1.7,5.4c0,2.4,0.6,4.2,1.7,5.4c1.1,1.3,2.7,1.9,4.7,1.9
				c1.3,0,2.7-0.2,4.3-0.7v1.8c-1.2,0.5-2.8,0.7-4.6,0.7c-2.6,0-4.7-0.8-6.1-2.4c-1.4-1.6-2.2-3.9-2.2-6.8c0-1.9,0.3-3.5,1-4.9
				c0.7-1.4,1.7-2.5,3-3.2c1.3-0.8,2.8-1.1,4.6-1.1c1.9,0,3.5,0.3,4.9,1l-0.9,1.8C237.6,114.7,236.3,114.4,234.9,114.4z"/>
		</g>
	</g>
</g>
</svg>
