<?xml version="1.0" encoding="utf-8"?>
<!-- Generator: Adobe Illustrator 21.0.2, SVG Export Plug-In . SVG Version: 6.00 Build 0)  -->
<svg version="1.1" xmlns="http://www.w3.org/2000/svg" xmlns:xlink="http://www.w3.org/1999/xlink" x="0px" y="0px"
	 viewBox="0 0 50 50" style="enable-background:new 0 0 50 50;" xml:space="preserve">
<style type="text/css">
	.st0{fill:#E6E7E8;}
	.st1{fill:#FFFFFF;}
	.st2{opacity:0.41;clip-path:url(#SVGID_4_);fill:#231F20;}
	.st3{fill:none;stroke:#63B946;stroke-width:2.5649;stroke-miterlimit:10;}
	.st4{fill:#848383;}
	.st5{fill:#DDDDDB;}
	.st6{clip-path:url(#SVGID_6_);fill:#848383;}
	.st7{fill:#D3D3D1;}
	.st8{fill:#231F20;}
	.st9{fill:#FFFFFF;stroke:#FFFFFF;stroke-width:0.592;stroke-miterlimit:10;}
	.st10{fill:#00AEEF;}
	.st11{fill:none;stroke:#00AEEF;stroke-width:0.5681;stroke-miterlimit:10;}
	.st12{fill:#C1BFBF;}
	.st13{fill:none;stroke:#FFFFFF;stroke-width:1.6986;stroke-miterlimit:10;}
	.st14{fill:none;stroke:#00AEEF;stroke-width:1.2229;stroke-miterlimit:10;}
	.st15{fill:#63B946;}
	.st16{clip-path:url(#SVGID_12_);fill:#848383;}
	.st17{fill:#EFEFEF;}
	.st18{clip-path:url(#SVGID_14_);fill:#848383;}
	.st19{clip-path:url(#SVGID_16_);fill:#FFFFFF;}
	.st20{fill:none;stroke:#FFFFFF;stroke-width:0.958;stroke-miterlimit:10;}
	.st21{fill:#B74799;}
	.st22{fill:#9CCA3B;}
	.st23{fill:#00B3E5;}
	.st24{fill:#F69023;}
	.st25{fill:#FFC10D;}
	.st26{fill:#F05951;}
	.st27{fill:#EC2D82;}
	.st28{fill:none;stroke:#BCBCBC;stroke-width:2.2647;stroke-miterlimit:10;}
	.st29{clip-path:url(#SVGID_18_);fill:#848383;}
	.st30{fill:none;stroke:#00AEEF;stroke-miterlimit:10;}
	.st31{fill:none;stroke:#00AEEF;stroke-width:2.6568;stroke-miterlimit:10;}
	.st32{fill:#EC008C;}
	.st33{fill:none;stroke:#EC008C;stroke-width:2.1895;stroke-miterlimit:10;}
	.st34{fill:none;stroke:#00AEEF;stroke-width:3;stroke-miterlimit:10;}
	.st35{fill:none;stroke:#EC008C;stroke-width:2.4723;stroke-miterlimit:10;}
	.st36{fill:none;stroke:#63B946;stroke-width:4.8321;stroke-miterlimit:10;}
	.st37{fill:none;stroke:#63B946;stroke-width:5;stroke-miterlimit:10;}
	.st38{fill:none;stroke:#EC008C;stroke-width:3.1364;stroke-miterlimit:10;}
	.st39{fill:none;stroke:#00AEEF;stroke-width:0.7736;stroke-miterlimit:10;}
	.st40{fill:#F7F3BF;}
	.st41{fill:none;stroke:#D3D3D1;stroke-width:6;stroke-miterlimit:10;}
	.st42{fill:#BCBCBC;}
	.st43{fill:none;stroke:#D3D3D1;stroke-miterlimit:10;}
	.st44{fill:#777775;}
	.st45{fill:#FFFFFF;stroke:#777775;stroke-width:0.5;stroke-linecap:round;stroke-linejoin:round;stroke-miterlimit:10;}
	.st46{clip-path:url(#SVGID_20_);}
	.st47{fill:#DDDDDB;stroke:#D3D3D1;stroke-width:0.2613;stroke-miterlimit:10;}
	.st48{fill:none;stroke:#D3D3D1;stroke-width:6.9604;stroke-miterlimit:10;}
	.st49{fill:none;stroke:#D3D3D1;stroke-width:0.5755;stroke-miterlimit:10;}
	.st50{fill:none;stroke:#63B946;stroke-width:1.9209;stroke-miterlimit:10;}
	.st51{fill:#282827;}
	.st52{fill:none;stroke:#000000;stroke-width:0.5;stroke-miterlimit:10;}
	.st53{fill:#EAEAEA;stroke:#282827;stroke-width:0.75;stroke-miterlimit:10;}
	.st54{fill:none;stroke:#282827;stroke-miterlimit:10;}
	.st55{fill:#A5A49D;}
	.st56{fill-rule:evenodd;clip-rule:evenodd;fill:#848383;}
	.st57{fill:none;stroke:#EC008C;stroke-miterlimit:10;}
	.st58{fill:none;stroke:#D3D3D1;stroke-width:0.2938;stroke-miterlimit:10;}
	.st59{fill-rule:evenodd;clip-rule:evenodd;fill:#FFFFFF;}
	.st60{clip-path:url(#SVGID_30_);fill:#231F20;}
	.st61{fill:none;stroke:#FFFFFF;stroke-width:0.8471;stroke-miterlimit:10;}
	.st62{fill:#FFFFFD;}
	.st63{fill:none;stroke:#FFFFFF;stroke-width:1.003;stroke-linecap:round;stroke-linejoin:round;stroke-miterlimit:10;}
	.st64{fill:none;stroke:#FFFFFF;stroke-width:0.8363;stroke-miterlimit:10;}
	.st65{fill:none;stroke:#BCBCBC;stroke-width:0.8;stroke-miterlimit:10;}
	.st66{fill:none;stroke:#FFFFFF;stroke-width:0.8;stroke-miterlimit:10;}
	.st67{opacity:0.57;}
	.st68{clip-path:url(#SVGID_40_);fill:#231F20;}
	.st69{fill:none;stroke:#FFFFFF;stroke-width:0.8445;stroke-miterlimit:10;}
	.st70{fill:none;stroke:#FFFFFF;stroke-linecap:round;stroke-linejoin:round;stroke-miterlimit:10;}
	.st71{fill:none;stroke:#231F20;stroke-miterlimit:10;}
	.st72{clip-path:url(#SVGID_46_);}
	.st73{fill:#C9C9C7;}
	.st74{fill:none;stroke:#231F20;stroke-width:0.7722;stroke-miterlimit:10;}
	.st75{fill:#929497;}
	.st76{opacity:0.58;clip-path:url(#SVGID_64_);}
	.st77{fill:#9E9E9E;stroke:#FFFFFF;stroke-width:0.8538;stroke-miterlimit:10;}
</style>
<g id="base">
</g>
<g id="Capa_1">
	<g>
		<g>
			<path class="st1" d="M25,3.5c5.9,0,11.3,2.4,15.2,6.3c3.9,3.9,6.3,9.3,6.3,15.2c0,5.9-2.4,11.3-6.3,15.2
				c-3.9,3.9-9.3,6.3-15.2,6.3s-11.3-2.4-15.2-6.3C5.9,36.3,3.5,30.9,3.5,25c0-5.9,2.4-11.3,6.3-15.2C13.7,5.9,19.1,3.5,25,3.5
				L25,3.5z M39,11c-3.6-3.6-8.5-5.8-14-5.8S14.6,7.4,11,11c-3.6,3.6-5.8,8.5-5.8,14c0,5.5,2.2,10.4,5.8,14c3.6,3.6,8.5,5.8,14,5.8
				s10.4-2.2,14-5.8c3.6-3.6,5.8-8.5,5.8-14C44.8,19.5,42.6,14.6,39,11L39,11z"/>
		</g>
		<g>
			<g>
				<g>
					<g>
						<g>
							<g>
								<path class="st1" d="M30.7,11.7l-3.5,0c-3.9,0-6.4,2.6-6.4,6.6v3h-3.5c-0.3,0-0.5,0.2-0.5,0.5v4.4c0,0.3,0.2,0.5,0.5,0.5
									h3.5v11.1c0,0.3,0.3,0.5,0.5,0.5h4.5c0.3,0,0.5-0.2,0.5-0.5V26.7h4.1c0.3,0,0.5-0.2,0.5-0.5v-4.4c0-0.1-0.1-0.3-0.2-0.4
									c-0.1-0.1-0.2-0.2-0.4-0.2h-4.1v-2.6c0-1.2,0.3-1.9,1.9-1.9h2.3c0.3,0,0.5-0.2,0.5-0.5v-4.1C31.2,11.9,31,11.7,30.7,11.7
									L30.7,11.7z M30.7,11.7"/>
							</g>
						</g>
					</g>
				</g>
			</g>
		</g>
	</g>
</g>
</svg>
