<?xml version="1.0" encoding="utf-8"?>
<!-- Generator: Adobe Illustrator 21.0.2, SVG Export Plug-In . SVG Version: 6.00 Build 0)  -->
<svg version="1.1" xmlns="http://www.w3.org/2000/svg" xmlns:xlink="http://www.w3.org/1999/xlink" x="0px" y="0px"
	 viewBox="0 0 38 38" style="enable-background:new 0 0 38 38;" xml:space="preserve">
<style type="text/css">
	.st0{fill:#E6E7E8;}
	.st1{fill:#FFFFFF;}
	.st2{opacity:0.41;clip-path:url(#SVGID_4_);fill:#231F20;}
	.st3{fill:none;stroke:#63B946;stroke-width:2.5649;stroke-miterlimit:10;}
	.st4{fill:#848383;}
	.st5{fill:#DDDDDB;}
	.st6{clip-path:url(#SVGID_6_);fill:#848383;}
	.st7{fill:#D3D3D1;}
	.st8{fill:#231F20;}
	.st9{fill:#FFFFFF;stroke:#FFFFFF;stroke-width:0.592;stroke-miterlimit:10;}
	.st10{fill:#00AEEF;}
	.st11{fill:none;stroke:#00AEEF;stroke-width:0.5681;stroke-miterlimit:10;}
	.st12{fill:#C1BFBF;}
	.st13{fill:none;stroke:#FFFFFF;stroke-width:1.6986;stroke-miterlimit:10;}
	.st14{fill:none;stroke:#00AEEF;stroke-width:1.2229;stroke-miterlimit:10;}
	.st15{fill:#63B946;}
	.st16{clip-path:url(#SVGID_12_);fill:#848383;}
	.st17{fill:#EFEFEF;}
	.st18{clip-path:url(#SVGID_14_);fill:#848383;}
	.st19{clip-path:url(#SVGID_16_);fill:#FFFFFF;}
	.st20{fill:none;stroke:#FFFFFF;stroke-width:0.958;stroke-miterlimit:10;}
	.st21{fill:#B74799;}
	.st22{fill:#9CCA3B;}
	.st23{fill:#00B3E5;}
	.st24{fill:#F69023;}
	.st25{fill:#FFC10D;}
	.st26{fill:#F05951;}
	.st27{fill:#EC2D82;}
	.st28{fill:none;stroke:#BCBCBC;stroke-width:2.2647;stroke-miterlimit:10;}
	.st29{clip-path:url(#SVGID_18_);fill:#848383;}
	.st30{fill:none;stroke:#00AEEF;stroke-miterlimit:10;}
	.st31{fill:none;stroke:#00AEEF;stroke-width:2.6568;stroke-miterlimit:10;}
	.st32{fill:#EC008C;}
	.st33{fill:none;stroke:#EC008C;stroke-width:2.1895;stroke-miterlimit:10;}
	.st34{fill:none;stroke:#00AEEF;stroke-width:3;stroke-miterlimit:10;}
	.st35{fill:none;stroke:#EC008C;stroke-width:2.4723;stroke-miterlimit:10;}
	.st36{fill:none;stroke:#63B946;stroke-width:4.8321;stroke-miterlimit:10;}
	.st37{fill:none;stroke:#63B946;stroke-width:5;stroke-miterlimit:10;}
	.st38{fill:none;stroke:#EC008C;stroke-width:3.1364;stroke-miterlimit:10;}
	.st39{fill:none;stroke:#00AEEF;stroke-width:0.7736;stroke-miterlimit:10;}
	.st40{fill:#F7F3BF;}
	.st41{fill:none;stroke:#D3D3D1;stroke-width:6;stroke-miterlimit:10;}
	.st42{fill:#BCBCBC;}
	.st43{fill:none;stroke:#D3D3D1;stroke-miterlimit:10;}
	.st44{fill:#777775;}
	.st45{fill:#FFFFFF;stroke:#777775;stroke-width:0.5;stroke-linecap:round;stroke-linejoin:round;stroke-miterlimit:10;}
	.st46{clip-path:url(#SVGID_20_);}
	.st47{fill:#DDDDDB;stroke:#D3D3D1;stroke-width:0.2613;stroke-miterlimit:10;}
	.st48{fill:none;stroke:#D3D3D1;stroke-width:6.9604;stroke-miterlimit:10;}
	.st49{fill:none;stroke:#D3D3D1;stroke-width:0.5755;stroke-miterlimit:10;}
	.st50{fill:none;stroke:#63B946;stroke-width:1.9209;stroke-miterlimit:10;}
	.st51{fill:#282827;}
	.st52{fill:none;stroke:#000000;stroke-width:0.5;stroke-miterlimit:10;}
	.st53{fill:#EAEAEA;stroke:#282827;stroke-width:0.75;stroke-miterlimit:10;}
	.st54{fill:none;stroke:#282827;stroke-miterlimit:10;}
	.st55{fill:#A5A49D;}
	.st56{fill-rule:evenodd;clip-rule:evenodd;fill:#848383;}
	.st57{fill:none;stroke:#EC008C;stroke-miterlimit:10;}
	.st58{fill:none;stroke:#D3D3D1;stroke-width:0.2938;stroke-miterlimit:10;}
	.st59{fill-rule:evenodd;clip-rule:evenodd;fill:#FFFFFF;}
	.st60{clip-path:url(#SVGID_30_);fill:#231F20;}
	.st61{fill:none;stroke:#FFFFFF;stroke-width:0.8471;stroke-miterlimit:10;}
	.st62{fill:#FFFFFD;}
	.st63{fill:none;stroke:#FFFFFF;stroke-width:1.003;stroke-linecap:round;stroke-linejoin:round;stroke-miterlimit:10;}
	.st64{fill:none;stroke:#FFFFFF;stroke-width:0.8363;stroke-miterlimit:10;}
	.st65{fill:none;stroke:#BCBCBC;stroke-width:0.8;stroke-miterlimit:10;}
	.st66{fill:none;stroke:#FFFFFF;stroke-width:0.8;stroke-miterlimit:10;}
	.st67{opacity:0.57;}
	.st68{clip-path:url(#SVGID_40_);fill:#231F20;}
	.st69{fill:none;stroke:#FFFFFF;stroke-width:0.8445;stroke-miterlimit:10;}
	.st70{fill:none;stroke:#FFFFFF;stroke-linecap:round;stroke-linejoin:round;stroke-miterlimit:10;}
	.st71{fill:none;stroke:#231F20;stroke-miterlimit:10;}
	.st72{clip-path:url(#SVGID_46_);}
	.st73{fill:#C9C9C7;}
	.st74{fill:none;stroke:#231F20;stroke-width:0.7722;stroke-miterlimit:10;}
	.st75{fill:#929497;}
	.st76{opacity:0.58;clip-path:url(#SVGID_64_);}
	.st77{fill:#9E9E9E;stroke:#FFFFFF;stroke-width:0.8538;stroke-miterlimit:10;}
</style>
<g id="base">
</g>
<g id="Capa_1">
	<g>
		<g>
			<path class="st62" d="M36.6,7.3c0-1.8-1.5-3.3-3.3-3.3h-3.5V2.3c0-0.6-0.5-1.1-1.1-1.1s-1.1,0.5-1.1,1.1v1.6H10.4V2.3
				c0-0.6-0.5-1.1-1.1-1.1S8.2,1.7,8.2,2.3v1.6H4.7c-1.8,0-3.3,1.5-3.3,3.3v5.1c0,0.1,0,0.1,0,0.2c0,0.1,0,0.1,0,0.2c0,0,0,0,0,0
				c0,0,0,0,0,0V33c0,1.8,1.5,3.3,3.3,3.3h28.5c1.8,0,3.3-1.5,3.3-3.3V12.7c0,0,0,0,0,0c0,0,0,0,0,0c0-0.1,0-0.1,0-0.2
				c0-0.1,0-0.1,0-0.2V7.3z M34.4,33c0,0.6-0.5,1.1-1.1,1.1H4.7c-0.6,0-1.1-0.5-1.1-1.1V13.8h30.7V33z M34.4,11.5H3.6V7.3
				c0-0.6,0.5-1.1,1.1-1.1h3.4v1.6c0,0.6,0.5,1.1,1.1,1.1s1.1-0.5,1.1-1.1V6.1h17.2v1.6c0,0.6,0.5,1.1,1.1,1.1
				c0.6,0,1.1-0.5,1.1-1.1V6.1h3.5c0.6,0,1.1,0.5,1.1,1.1V11.5z"/>
			<ellipse class="st62" cx="13.1" cy="19.8" rx="1.1" ry="1.1"/>
			<ellipse class="st62" cx="18.4" cy="19.8" rx="1.1" ry="1.1"/>
			<ellipse class="st62" cx="24.3" cy="19.8" rx="1.1" ry="1.1"/>
			<ellipse class="st62" cx="30.4" cy="19.8" rx="1.1" ry="1.1"/>
			<ellipse class="st62" cx="7.7" cy="23.6" rx="1.1" ry="1.1"/>
			<ellipse class="st62" cx="13.1" cy="23.6" rx="1.1" ry="1.1"/>
			<ellipse class="st62" cx="18.4" cy="23.6" rx="1.1" ry="1.1"/>
			<ellipse class="st62" cx="24.3" cy="23.6" rx="1.1" ry="1.1"/>
			<ellipse class="st62" cx="30.4" cy="23.6" rx="1.1" ry="1.1"/>
			<ellipse class="st62" cx="7.7" cy="27.4" rx="1.1" ry="1.1"/>
			<ellipse class="st62" cx="13.1" cy="27.4" rx="1.1" ry="1.1"/>
			<ellipse class="st62" cx="18.4" cy="27.4" rx="1.1" ry="1.1"/>
			<ellipse class="st62" cx="24.3" cy="27.4" rx="1.1" ry="1.1"/>
			<ellipse class="st62" cx="30.4" cy="27.4" rx="1.1" ry="1.1"/>
			<ellipse class="st62" cx="7.7" cy="31.3" rx="1.1" ry="1.1"/>
			<ellipse class="st62" cx="13.1" cy="31.3" rx="1.1" ry="1.1"/>
			<ellipse class="st62" cx="18.4" cy="31.3" rx="1.1" ry="1.1"/>
		</g>
	</g>
</g>
</svg>
