<svg xmlns="http://www.w3.org/2000/svg" viewBox="0 0 231.72 21.43"><defs><style>.cls-1{font-size:11.53px;font-family:ArialMT, Arial;}.cls-1,.cls-2{fill:#fff;}</style></defs><title>Recurso 20</title><g id="Capa_2" data-name="Capa 2"><g id="Layer_1" data-name="Layer 1"><text class="cls-1" transform="translate(0 12.89)">DESARROLLADO POR :</text><path class="cls-2" d="M167.42,10.71a.75.75,0,0,0,.41.62l7.29,4.74a.15.15,0,0,0,.11,0,.17.17,0,0,0,.08-.06l.66-1a.14.14,0,0,0,0-.19l-6.33-4.08,6-3.92a.16.16,0,0,0,.06-.09.15.15,0,0,0,0-.11l-.66-1a.14.14,0,0,0-.11-.06.12.12,0,0,0-.08,0l-6.92,4.51A.76.76,0,0,0,167.42,10.71Z"/><rect class="cls-2" x="164.98" y="5.56" width="1.5" height="10.04" rx="0.14" ry="0.14"/><path class="cls-2" d="M204.23,14.83a3.41,3.41,0,0,0,.55-2.05,2.8,2.8,0,0,0-.36-1.62,2.6,2.6,0,0,0-1.37-.84,4.06,4.06,0,0,0-1.15-.12h-4.7a6.31,6.31,0,0,1-1.67-.18,1.79,1.79,0,0,1-.82-.4,1.28,1.28,0,0,1-.22-.85A1.61,1.61,0,0,1,195,7.41,3.73,3.73,0,0,1,196.53,7a23.69,23.69,0,0,1,2.75-.14,15.36,15.36,0,0,1,2.38.13c.76.14,1.22.43,1.37.85v0a2.56,2.56,0,0,1,.13.93,0,0,0,0,0,.05.05l1.22,0,0,0a0,0,0,0,0,0,0,3.9,3.9,0,0,0-.21-1.33,2.71,2.71,0,0,0-2.12-1.66,12.71,12.71,0,0,0-2.84-.23,24.71,24.71,0,0,0-3,.15,4.79,4.79,0,0,0-2.4.75,2.81,2.81,0,0,0-.8,2.28v.06a2.67,2.67,0,0,0,.41,1.71,3.38,3.38,0,0,0,1.57.8,7.29,7.29,0,0,0,2,.23h4.91a1.55,1.55,0,0,1,.49.07,1.28,1.28,0,0,1,.67.39,1.25,1.25,0,0,1,.19.76,2.42,2.42,0,0,1-.26,1.23,1.67,1.67,0,0,1-1.1.6h0c-.69.09-1.12.13-1.35.15-.78.05-1.63.08-2.52.08a9.19,9.19,0,0,1-3.13-.35,1,1,0,0,1-.5-.65,3.37,3.37,0,0,1-.08-.86v-.14a.05.05,0,0,0,0-.05h-1.21a0,0,0,0,0-.05,0,1,1,0,0,1,0,.16,4,4,0,0,0,.22,1.51,2.22,2.22,0,0,0,1,1.15,4.86,4.86,0,0,0,1.82.46c.39,0,1,.05,1.91.05s1.79,0,2.64-.08a12.23,12.23,0,0,0,1.57-.17A3.07,3.07,0,0,0,204.23,14.83Z"/><path class="cls-2" d="M190.23,15.83l1.06-.57a.14.14,0,0,0,.06-.19l-5.27-9.24a.73.73,0,0,0-.64-.36h-2a.71.71,0,0,0-.65.36l-5.27,9.24a.12.12,0,0,0,0,.11.13.13,0,0,0,.07.08l1.07.58a.15.15,0,0,0,.18-.06l5-8.82H185L190,15.78A.13.13,0,0,0,190.23,15.83Z"/><path class="cls-2" d="M217.08,14.11H208.7V7h8.38a.14.14,0,0,0,.14-.14V5.62a.14.14,0,0,0-.14-.14h-9.13a.67.67,0,0,0-.75.73v8.63a.68.68,0,0,0,.75.75h9.13a.14.14,0,0,0,.14-.14V14.25A.14.14,0,0,0,217.08,14.11Z"/><path class="cls-2" d="M231.15,11.69l-.11-.18.13-.17a3.71,3.71,0,0,0,.56-2.29c0-2.06-.86-3.23-2.54-3.46a27.46,27.46,0,0,0-3-.11h-6a.67.67,0,0,0-.75.73v9.25a.14.14,0,0,0,.14.14h1.22a.14.14,0,0,0,.14-.14V7h5.2a21.15,21.15,0,0,1,2.76.11,1.18,1.18,0,0,1,1,.62A3,3,0,0,1,230.22,9a6.06,6.06,0,0,1-.07,1,.68.68,0,0,1-.4.49h0l-.68.25a.68.68,0,0,0-.44.66c0,.26.12.6.69.71.4.08.62.26.68.55s.06,1.12.06,2.72a.14.14,0,0,0,.14.14h1.22a.14.14,0,0,0,.14-.14V14.14a13.68,13.68,0,0,0,0-1.42A2.58,2.58,0,0,0,231.15,11.69Z"/><path class="cls-2" d="M184.43,13.54v-.07a1,1,0,0,0,1-1,1,1,0,1,0-1,1v.07Z"/><path class="cls-2" d="M212.75,11.63v-.07a1,1,0,0,0,.71-.3,1,1,0,0,0,.29-.71,1,1,0,1,0-1,1v.07Z"/><path class="cls-2" d="M150.25,0a9.69,9.69,0,0,0-8.44,14.44h0a14.6,14.6,0,0,0,8.21,7,.18.18,0,0,0,.24-.18V19.38a9.69,9.69,0,1,0,0-19.38Zm0,17.19a7.5,7.5,0,1,1,7.5-7.5A7.51,7.51,0,0,1,150.25,17.19Z"/><circle class="cls-2" cx="146.74" cy="7.99" r="1.07" transform="translate(-0.01 0.26) rotate(-0.1)"/><path class="cls-2" d="M154.79,7.13l-.11-.05a4.53,4.53,0,0,0-3.51.29h0a.66.66,0,0,0-.36.57.64.64,0,0,0,.64.64h0c.39,0,1.66-.65,2-.64a2.43,2.43,0,0,1,.89.24l.09,0h.11a.57.57,0,0,0,.2-1.1Z"/><path class="cls-2" d="M152.9,14.6a3.16,3.16,0,0,1-1.93.23,4.61,4.61,0,0,1-.67-.14,4.3,4.3,0,0,1-2.13-1.27.14.14,0,0,1,0-.16.14.14,0,0,1,.15-.07,6.5,6.5,0,0,0,1.94,0,6.74,6.74,0,0,0,1.67-.54,6.9,6.9,0,0,0,1.42-1,6.4,6.4,0,0,0,1.15-1.56.15.15,0,0,1,.14-.08.13.13,0,0,1,.12.1,4.3,4.3,0,0,1-.23,2.47,4.42,4.42,0,0,1-.28.63,3.16,3.16,0,0,1-1.32,1.43Z"/></g></g></svg>